<svg width="78" height="74" viewBox="0 0 78 74" fill="none" xmlns="http://www.w3.org/2000/svg">
<g clip-path="url(#clip0_653_60)">
<path d="M39.8501 3.97307C41.2482 3.89081 42.2633 4.00522 43.6305 4.21825C44.4563 4.32796 45.3223 4.39653 46.1343 4.58326C47.6181 4.92443 49.0196 5.34763 50.416 5.95616C51.2425 6.31634 52.0002 6.54272 52.7635 7.08518C53.117 7.33638 53.6985 7.51842 54.0563 7.79505C54.6169 8.18472 55.1247 8.63683 55.6682 9.04985C56.5267 9.72974 57.4478 10.4359 58.2407 11.1888C59.9795 12.8668 61.4477 14.8051 62.593 16.9344C62.8611 17.439 63.0566 17.9628 63.3051 18.4656C64.0394 19.9508 64.6425 21.436 65.0226 23.0538C65.1791 23.72 65.3107 24.4006 65.4302 25.0857C65.5536 25.7926 65.7536 26.5902 65.7939 27.3132C65.9484 30.0848 65.6218 33.0259 65.0149 35.7288C64.8868 36.1536 64.7064 36.5599 64.5506 36.9766C64.3353 37.5523 64.1707 38.1759 63.9223 38.7375C63.7278 39.1768 63.4729 39.6102 63.2596 40.0437C62.972 40.6282 62.694 41.2226 62.3677 41.7861C61.8523 42.6688 61.2528 43.523 60.7211 44.3908C62.2373 44.9646 62.8004 45.7713 64.0655 46.71C67.0385 48.9161 69.5832 51.5205 72.1811 54.1351C72.9713 54.9305 74.244 56.1712 74.8539 57.0376C75.9831 58.6417 75.3174 61.7628 73.5027 62.6831C72.5784 63.2751 70.7841 63.3123 69.7144 63.1621C68.4576 62.9857 66.6558 60.77 65.8009 59.8626L61.7625 55.5554C61.5697 55.3486 61.3735 55.1447 61.1722 54.9461C59.6291 53.4236 58.1946 51.7869 56.7166 50.2003C56.3666 49.8245 56.0416 49.3386 55.7628 48.9092C55.1544 49.5422 55.0075 50.0282 54.197 50.4669C51.7581 51.7864 49.2818 52.9634 46.5371 53.4819C45.8688 53.6082 45.1996 53.8415 44.5031 53.9161C43.8378 53.9873 43.1862 54.0064 42.5163 54.03C40.5541 54.0962 38.5899 54.0547 36.6324 53.9053C36.5177 53.0754 37.0083 52.108 37.1655 51.1026C37.2328 50.4764 37.2571 49.9466 37.2785 49.316C37.6107 49.3677 38.0153 49.3494 38.3524 49.3762C39.6183 49.5297 40.8436 49.3464 42.0876 49.3049C43.595 49.2543 44.5282 49.0667 45.9639 48.6897C48.9524 47.9171 52.1642 46.3392 54.4355 44.2098C56.2132 42.5432 57.9506 40.0949 58.9484 37.8681C60.1935 35.0887 60.7679 32.2765 60.6667 29.2296C60.6122 27.5921 60.6191 26.0298 60.2851 24.4121C60.0588 23.2148 59.9886 23.353 59.5033 22.2445C59.2907 21.7589 59.1792 21.0302 58.8627 20.4106C58.2263 19.2271 57.4803 17.8653 56.5883 16.8531C55.7258 15.8747 54.7483 14.7558 53.7964 13.8774C52.1846 12.3903 50.6054 11.3844 48.6077 10.5161C45.0071 8.95114 41.1908 8.54358 37.3304 9.28185C35.9236 9.54683 34.7888 9.7392 33.4927 10.3924C32.0492 10.9732 30.4898 11.7297 29.2234 12.6512C28.4597 13.2071 27.2991 14.2267 26.658 14.8941C25.735 15.855 24.8861 17.1353 24.1157 18.227C23.7876 18.6828 23.4974 19.1869 23.1827 19.6475C22.5295 20.6042 22.0894 22.7405 21.5097 23.5592C21.3862 23.5991 21.137 23.5143 21.0171 23.4532C19.8375 22.8511 18.4971 22.0462 17.1525 21.9037L17.147 21.8058C17.0868 20.6723 17.8306 19.5156 18.2118 18.469C18.4058 17.8552 18.9065 17.2725 19.1548 16.7173C19.6614 15.584 20.2551 14.8731 21.0063 13.9156C22.4747 12.0446 24.174 10.3895 26.1338 9.03346C26.7554 8.60328 27.3288 8.07299 27.9727 7.66943C31.5594 5.45789 35.6441 4.18671 39.8501 3.97307Z" fill="#334A4E"/>
<path d="M26.8256 10.5479C27.009 10.5973 27.1811 10.6032 27.252 10.7914C27.1436 11.0705 26.3319 11.2499 26.0674 11.2494C26.1487 11.191 26.1565 11.2093 26.272 11.199C26.514 11.1304 26.5794 11.1487 26.6904 10.923L26.6356 10.864L26.6836 10.9531L26.6162 10.8614C26.4828 10.8655 26.3301 10.9594 26.1633 10.975L26.8256 10.5479Z" fill="#2A3639"/>
<path d="M8.18688 18.77C8.88911 19.5834 9.64739 20.4429 10.4632 21.1613C12.6892 23.1214 15.3968 24.3734 18.1565 25.3869C19.395 25.9028 20.9428 26.2753 22.1463 26.8104C23.1097 27.2386 24.3986 27.9816 25.3386 28.4896C26.7607 29.2581 28.1816 30.4959 29.3063 31.6412C30.5699 32.8232 31.3172 34.1707 32.2 35.6488C33.1632 37.2619 34.1286 39.7365 34.2763 41.6327C34.5234 44.8097 34.4865 49.4664 33.76 52.5067C33.3519 54.2147 31.2522 59.1228 29.9753 60.1217C29.7496 60.3786 28.2324 61.771 27.993 61.9311C27.9958 61.8315 27.9916 61.8365 27.9515 61.7436C27.8199 61.7073 27.7993 61.7486 27.6383 61.8084C28.1242 61.2402 28.6551 59.943 28.9787 59.2083C29.0621 58.9013 29.6041 57.4356 29.7173 57.1348C30.6539 54.6457 30.989 52.7028 30.7012 50.0479C30.2053 45.4715 27.6113 42.2486 24.1744 39.4022C23.3181 38.6931 22.3781 38.0143 21.4946 37.3076C21.0435 37.2499 17.3191 33.8572 16.7206 33.3397C16.5037 33.152 16.104 32.7088 15.826 32.5788C15.7977 32.6659 15.8165 32.7016 15.8362 32.7928C15.4648 33.2695 15.7576 33.1014 15.5953 33.4902C15.6595 33.4915 15.6229 33.4955 15.7031 33.4676C15.737 33.5881 15.7337 33.5807 15.7176 33.706C15.9712 33.9462 16.2408 34.3735 16.4732 34.6551C17.2555 35.6024 18.0259 36.5583 18.8304 37.4875C19.1632 37.886 20.5133 39.0666 20.6138 39.2748C22.217 40.778 24.12 42.5857 25.4636 44.3113C26.8102 46.0413 28.0763 49.045 28.1727 51.2618C26.845 51.1957 25.4724 51.1192 24.1537 50.9853C23.7164 50.9411 23.0511 50.6419 22.6042 50.5368C21.2136 50.2094 19.9107 49.6975 18.5938 49.1504C17.8724 48.8506 17.136 48.5601 16.4526 48.1715C15.8908 47.8583 15.3923 47.4185 14.8563 47.0631C13.7463 46.3682 13.1152 45.9225 12.2254 44.9381C8.0807 40.3165 5.91487 34.2478 6.19506 28.0406C6.30834 25.7804 6.929 20.5582 8.18688 18.77Z" fill="#619F4C"/>
<path d="M20.6138 39.2746C19.4919 38.4483 18.5604 37.309 17.677 36.2449C16.8565 35.2565 16.0265 34.277 15.2903 33.2219C15.0476 32.8742 14.2838 31.9753 14.4069 31.5638C14.5283 31.4572 14.5495 31.4642 14.7179 31.4424C14.8589 31.4874 15.1326 31.6933 15.2392 31.7984C16.6738 33.2107 18.1707 34.5145 19.6974 35.8238C20.2289 36.2797 21.0428 36.8158 21.4945 37.3073C21.0434 37.2496 17.319 33.8569 16.7206 33.3394C16.5037 33.1517 16.104 32.7085 15.826 32.5785C15.7977 32.6656 15.8165 32.7014 15.8361 32.7925C15.4648 33.2693 15.7575 33.1011 15.5952 33.4899C15.6594 33.4913 15.6229 33.4953 15.7031 33.4673C15.737 33.5879 15.7336 33.5804 15.7175 33.7058C15.9712 33.9459 16.2407 34.3733 16.4732 34.6548C17.2555 35.6022 18.0258 36.558 18.8304 37.4873C19.1631 37.8857 20.5132 39.0664 20.6138 39.2746Z" fill="#D1FCB2"/>
<path d="M28.9781 59.208L29.0286 59.2567C28.8963 59.6941 28.6605 60.0982 28.5015 60.5329C29.0654 61.3347 29.4581 60.2749 29.9274 60.1042L29.9747 60.1214C29.749 60.3784 28.2318 61.7707 27.9923 61.9309C27.9952 61.8313 27.991 61.8363 27.9509 61.7433C27.8193 61.707 27.7987 61.7483 27.6377 61.8081C28.1236 61.2399 28.6545 59.9427 28.9781 59.208Z" fill="#264625"/>
<path d="M47.8822 19.2026C48.9281 19.2417 49.9891 19.2203 51.0203 19.2708C51.1858 20.9949 51.0726 22.5004 51.0583 24.221L51.0316 31.6671L51.0313 33.9745C51.0329 34.4165 51.0207 34.9907 51.0741 35.4189C49.9841 35.4283 48.8941 35.4121 47.8049 35.3706C47.7598 32.8873 47.824 30.3901 47.8378 27.9067C47.854 25.0017 47.8067 22.1078 47.8822 19.2026Z" fill="#334A4E"/>
<path d="M34.061 19.2773C34.7791 19.3013 35.5231 19.2813 36.2581 19.3049C36.2739 20.3561 36.2035 21.4922 36.1867 22.5533L36.1456 28.0652C36.12 30.4894 36.1952 32.7698 36.1277 35.2462L36.0804 35.3176C35.9051 35.3686 35.4567 35.3872 35.3435 35.2221C34.9389 34.6323 34.4004 33.7507 34.1951 33.0744C34.0957 32.7463 34.143 31.8502 34.1443 31.4853C34.1488 30.7121 34.1478 29.9388 34.141 29.1656C34.1026 25.942 33.9644 22.4736 34.061 19.2773Z" fill="#334A4E"/>
<path d="M52.557 19.2158C53.0207 19.2038 53.373 19.2251 53.8364 19.2555C53.8839 21.3097 53.8238 23.5371 53.8127 25.6072C53.7868 29.0348 53.801 32.4626 53.8556 35.8899C53.8621 36.3199 53.9506 39.1324 53.8545 39.2788L53.6973 39.2856C53.2509 39.2869 52.7678 39.2631 52.3174 39.2532C52.3741 38.5137 52.3864 37.6278 52.4087 36.8787C52.4596 35.1173 52.481 33.3553 52.4729 31.5931L52.482 25.1079C52.4759 23.3491 52.3741 20.9223 52.557 19.2158Z" fill="#2A3639"/>
<path d="M42.1914 19.3084C42.5062 19.2921 42.8371 19.3182 43.1533 19.3355C43.1456 19.7093 43.0569 20.2897 43.0228 20.6906C42.9707 21.3732 42.939 22.0575 42.9279 22.7421C42.8492 26.925 42.8851 31.1093 43.0353 35.29L42.2669 35.3142C41.9655 35.3218 41.589 35.3055 41.2818 35.3012C41.2086 33.3622 41.2748 31.2861 41.2733 29.3315L41.2461 19.3516L42.1914 19.3084Z" fill="#2A3639"/>
<path d="M38.3981 19.302C38.8797 19.2671 39.0397 19.268 39.5035 19.3912C39.5842 19.8962 39.5312 21.1444 39.5171 21.6769C39.4977 22.4865 39.4919 23.2964 39.4997 24.1062L39.5256 35.4181C39.4509 35.4909 39.4428 35.464 39.3002 35.465C38.932 35.449 38.3895 35.4078 38.0366 35.4488C38.1015 31.2989 37.959 27.1011 38.0102 22.9495C38.0169 22.4119 37.9507 19.7141 38.037 19.4118C38.1669 19.3085 38.2187 19.3297 38.3981 19.302Z" fill="#2A3639"/>
<path d="M45.2418 19.2554C45.7041 19.2323 45.9799 19.2416 46.4323 19.2749C46.481 20.1373 46.4403 21.1236 46.4352 21.9983C46.4328 23.5899 46.4222 25.1816 46.4031 26.7732C46.3751 29.6266 46.4421 32.4785 46.4033 35.3268C46.2871 35.4784 45.5063 35.3901 45.292 35.3785C45.232 34.8267 45.258 33.7581 45.257 33.1678L45.2598 29.0685L45.2542 23.3334C45.2454 21.9545 45.2094 20.6402 45.2418 19.2554Z" fill="#334A4E"/>
<path d="M30.9573 19.1723C31.5214 19.1507 31.7909 19.1387 32.3452 19.2543C32.4737 20.3214 32.4045 21.7457 32.4 22.8512L32.3927 27.1186C32.3872 28.268 32.3631 29.4435 32.4011 30.5896C32.0624 30.4639 31.3764 30.028 30.9893 29.8253C30.9118 29.311 30.9362 27.508 30.9286 26.8961C30.8884 24.3215 30.8981 21.7465 30.9573 19.1723Z" fill="#334A4E"/>
<path d="M27.6922 19.1743L29.3302 19.2195C29.3753 22.1967 29.3018 25.1236 29.2764 28.0897C29.1231 28.0744 28.1516 27.7076 27.8112 27.6253C27.6708 26.4765 27.7305 24.9189 27.7143 23.7339C27.6935 22.2254 27.6641 20.6799 27.6922 19.1743Z" fill="url(#paint0_linear_653_60)"/>
<path d="M45.9554 36.9336C46.6675 36.9484 46.8011 36.9728 47.016 37.6965C47.1607 38.1838 47.2006 38.5202 47.2085 39.0254C46.9166 39.054 46.6222 39.0653 46.3291 39.0796C46.0359 39.0857 45.1815 39.1513 45.0078 39.0044C44.907 38.6404 45.0508 37.5174 45.0931 37.0819C45.4177 36.9848 45.6205 36.9579 45.9554 36.9336Z" fill="#2A3639"/>
<path d="M37.82 36.9351C38.4009 36.9602 38.757 36.9063 39.3866 36.9886C39.4802 37.3664 39.812 38.866 39.4454 39.046C38.826 39.2212 38.3054 39.2191 37.6773 39.1901C37.6585 38.5998 37.7503 37.5281 37.82 36.9351Z" fill="#334A4E"/>
<path d="M48.9618 37.0317C49.5674 37.0951 50.1777 37.1011 50.7845 37.0492C50.7807 37.7255 50.7885 38.4018 50.8079 39.0778C50.3162 39.0778 49.3329 39.0515 48.8848 39.1109C48.8964 38.4175 48.9221 37.7242 48.9618 37.0317Z" fill="#334A4E"/>
<path d="M41.816 36.9773C42.2968 36.9553 42.5817 36.9692 43.0525 37.0661C43.2246 37.5493 43.4797 38.4681 43.2847 38.9575C43.1845 39.0508 43.0584 39.0458 42.9185 39.0614C42.6245 39.0708 41.6578 39.1531 41.4934 38.974C41.3991 38.5705 41.5523 37.537 41.6502 37.1005C41.6708 37.0092 41.7332 37.0089 41.816 36.9773Z" fill="#2A3639"/>
<path d="M27.6379 61.8084C27.7989 61.7486 27.8195 61.7073 27.9511 61.7436C27.9913 61.8365 27.9954 61.8315 27.9926 61.9312C27.7614 62.1014 27.5004 62.369 27.2591 62.4781L27.2109 62.4543C27.2586 62.2015 27.4685 61.9915 27.6379 61.8084Z" fill="#0A100A"/>
</g>
<defs>
<linearGradient id="paint0_linear_653_60" x1="26.3631" y1="22.4047" x2="30.7618" y2="24.3724" gradientUnits="userSpaceOnUse">
<stop stop-color="#3C4347"/>
<stop offset="1" stop-color="#475956"/>
</linearGradient>
<clipPath id="clip0_653_60">
<rect width="78" height="74" fill="white"/>
</clipPath>
</defs>
</svg>
